<svg width="30" height="30" viewBox="0 0 30 30" fill="none" xmlns="http://www.w3.org/2000/svg">
  <circle cx="15" cy="15" r="15" fill="white"/>
  <path d="M 8.6 6.6 C 7.5 6.6 6.6 7.5 6.6 8.6 L 6.6 21.4 C 6.6 22.5 7.5 23.4 8.6 23.4 L 21.4 23.4 C 22.5 23.4 23.4 22.5 23.4 21.4 L 23.4 8.6 C 23.4 7.5 22.5 6.6 21.4 6.6 L 8.6 6.6 Z M 8.6 7.4 L 21.4 7.4 C 22.067 7.4 22.6 7.933 22.6 8.6 L 22.6 21.4 C 22.6 22.068 22.067 22.6 21.4 22.6 L 8.6 22.6 C 7.933 22.6 7.4 22.068 7.4 21.4 L 7.4 8.6 C 7.4 7.933 7.933 7.4 8.6 7.4 Z M 10.6 9.405 C 10.162 9.405 9.768 9.536 9.476 9.781 C 9.184 10.027 9.005 10.394 9.005 10.787 C 9.005 11.534 9.652 12.116 10.477 12.174 L 10.478 12.174 C 10.517 12.188 10.559 12.195 10.6 12.195 C 11.509 12.195 12.195 11.559 12.195 10.787 C 12.195 10.78 12.195 10.773 12.195 10.766 C 12.154 10.006 11.476 9.405 10.6 9.405 Z M 10.6 10.195 C 11.157 10.195 11.377 10.444 11.401 10.797 C 11.396 11.139 11.184 11.405 10.6 11.405 C 10.046 11.405 9.795 11.121 9.795 10.787 C 9.795 10.62 9.856 10.494 9.984 10.386 C 10.112 10.278 10.318 10.195 10.6 10.195 Z M 9.4 12.6 C 9.294 12.6 9.192 12.642 9.117 12.717 C 9.042 12.792 9 12.894 9 13 L 9 20.6 C 9 20.706 9.042 20.808 9.117 20.883 C 9.192 20.958 9.294 21 9.4 21 L 11.8 21 C 11.906 21 12.008 20.958 12.083 20.883 C 12.158 20.808 12.2 20.706 12.2 20.6 L 12.2 18.254 L 12.2 13 C 12.2 12.894 12.158 12.792 12.083 12.717 C 12.008 12.642 11.906 12.6 11.8 12.6 L 9.4 12.6 Z M 13 12.6 C 12.894 12.6 12.792 12.642 12.717 12.717 C 12.642 12.792 12.6 12.894 12.6 13 L 12.6 20.6 C 12.6 20.706 12.642 20.808 12.717 20.883 C 12.792 20.958 12.894 21 13 21 L 15.4 21 C 15.506 21 15.608 20.958 15.683 20.883 C 15.758 20.808 15.8 20.706 15.8 20.6 L 15.8 16.6 C 15.8 16.268 15.891 15.938 16.05 15.722 C 16.209 15.506 16.411 15.376 16.793 15.383 C 17.187 15.39 17.396 15.525 17.554 15.737 C 17.712 15.949 17.8 16.267 17.8 16.6 L 17.8 20.6 C 17.8 20.706 17.842 20.808 17.917 20.883 C 17.992 20.958 18.094 21 18.2 21 L 20.6 21 C 20.706 21 20.808 20.958 20.883 20.883 C 20.958 20.808 21 20.706 21 20.6 L 21 16.305 C 21 15.12 20.649 14.182 20.048 13.547 C 19.446 12.912 18.61 12.6 17.725 12.6 C 16.884 12.6 16.244 12.882 15.8 13.17 L 15.8 13 C 15.8 12.894 15.758 12.792 15.683 12.717 C 15.608 12.642 15.506 12.6 15.4 12.6 L 13 12.6 Z M 9.8 13.4 L 11.4 13.4 L 11.4 18.254 L 11.4 20.2 L 9.8 20.2 L 9.8 13.4 Z M 13.4 13.4 L 15 13.4 L 15 14.024 C 15 14.108 15.026 14.19 15.075 14.258 C 15.124 14.326 15.194 14.377 15.273 14.404 C 15.353 14.43 15.439 14.431 15.519 14.406 C 15.599 14.381 15.669 14.332 15.72 14.265 C 15.72 14.265 16.348 13.4 17.725 13.4 C 18.426 13.4 19.028 13.633 19.467 14.097 C 19.907 14.561 20.2 15.275 20.2 16.305 L 20.2 20.2 L 18.6 20.2 L 18.6 16.6 C 18.6 16.133 18.488 15.651 18.196 15.259 C 17.904 14.866 17.413 14.593 16.807 14.583 C 16.198 14.572 15.699 14.851 15.406 15.248 C 15.113 15.645 15 16.132 15 16.6 L 15 20.2 L 13.4 20.2 L 13.4 13.4 Z" fill="black"/>
</svg>
