<?xml version="1.0" encoding="UTF-8"?>
<!DOCTYPE svg PUBLIC "-//W3C//DTD SVG 1.1//EN" "http://www.w3.org/Graphics/SVG/1.1/DTD/svg11.dtd">
<svg xmlns="http://www.w3.org/2000/svg" version="1.1" width="307px" height="267px" style="shape-rendering:geometricPrecision; text-rendering:geometricPrecision; image-rendering:optimizeQuality; fill-rule:evenodd; clip-rule:evenodd" xmlns:xlink="http://www.w3.org/1999/xlink">
<g><path style="opacity:0.979" fill="#fe0015" d="M 226.5,-0.5 C 230.5,-0.5 234.5,-0.5 238.5,-0.5C 264.473,2.58377 283.306,15.9171 295,39.5C 307.508,71.7476 307.508,104.081 295,136.5C 287.852,156.954 276.685,174.787 261.5,190C 258.374,192.841 255.207,193.007 252,190.5C 251.833,189.5 251.667,188.5 251.5,187.5C 255.988,176.52 260.488,165.52 265,154.5C 272.245,135.453 274.912,115.786 273,95.5C 272.108,89.5997 270.442,83.933 268,78.5C 251.594,158.231 206.761,215.731 133.5,251C 112.676,261.298 90.6755,265.965 67.5,265C 39.4397,262.597 19.2731,248.763 7,223.5C 3.70005,215.277 1.20005,206.943 -0.5,198.5C -0.5,189.5 -0.5,180.5 -0.5,171.5C 6.63542,141.559 19.4688,114.226 38,89.5C 44.531,81.4602 52.3643,75.1269 61.5,70.5C 64.5,71.5 66.5,73.5 67.5,76.5C 54.5988,99.3713 45.7655,123.705 41,149.5C 38.5802,164.636 40.2469,179.303 46,193.5C 46.3333,193.833 46.6667,194.167 47,194.5C 47.2665,185.233 48.9332,176.233 52,167.5C 53.776,164.059 55.9426,160.892 58.5,158C 61.0991,157.231 63.5991,157.398 66,158.5C 66.7473,166.154 68.7473,173.487 72,180.5C 75.4826,185.636 80.316,188.803 86.5,190C 99.933,191.808 112.6,189.475 124.5,183C 172.772,155.044 200.772,113.377 208.5,58C 207.467,41.5443 198.634,33.7109 182,34.5C 177.79,34.6443 173.624,35.1443 169.5,36C 159.049,39.1447 148.883,42.978 139,47.5C 135.466,47.7858 133.632,46.1191 133.5,42.5C 134.098,41.2054 134.598,39.8721 135,38.5C 162.232,17.6285 192.732,4.62853 226.5,-0.5 Z"/></g>
</svg>
