<?xml version="1.0" encoding="UTF-8"?>
<!DOCTYPE svg PUBLIC "-//W3C//DTD SVG 1.1//EN" "http://www.w3.org/Graphics/SVG/1.1/DTD/svg11.dtd">
<svg xmlns="http://www.w3.org/2000/svg" version="1.1" width="2000px" height="362px" style="shape-rendering:geometricPrecision; text-rendering:geometricPrecision; image-rendering:optimizeQuality; fill-rule:evenodd; clip-rule:evenodd" xmlns:xlink="http://www.w3.org/1999/xlink">
  <g><path style="opacity:0.979" fill="#fefffe" d="M 226.5,-0.5 C 230.5,-0.5 234.5,-0.5 238.5,-0.5C 264.473,2.58377 283.306,15.9171 295,39.5C 307.508,71.7476 307.508,104.081 295,136.5C 287.852,156.954 276.685,174.787 261.5,190C 258.374,192.841 255.207,193.007 252,190.5C 251.833,189.5 251.667,188.5 251.5,187.5C 255.988,176.52 260.488,165.52 265,154.5C 272.245,135.453 274.912,115.786 273,95.5C 272.108,89.5997 270.442,83.933 268,78.5C 251.594,158.231 206.761,215.731 133.5,251C 112.676,261.298 90.6755,265.965 67.5,265C 39.4397,262.597 19.2731,248.763 7,223.5C 3.70005,215.277 1.20005,206.943 -0.5,198.5C -0.5,189.5 -0.5,180.5 -0.5,171.5C 6.63542,141.559 19.4688,114.226 38,89.5C 44.531,81.4602 52.3643,75.1269 61.5,70.5C 64.5,71.5 66.5,73.5 67.5,76.5C 54.5988,99.3713 45.7655,123.705 41,149.5C 38.5802,164.636 40.2469,179.303 46,193.5C 46.3333,193.833 46.6667,194.167 47,194.5C 47.2665,185.233 48.9332,176.233 52,167.5C 53.776,164.059 55.9426,160.892 58.5,158C 61.0991,157.231 63.5991,157.398 66,158.5C 66.7473,166.154 68.7473,173.487 72,180.5C 75.4826,185.636 80.316,188.803 86.5,190C 99.933,191.808 112.6,189.475 124.5,183C 172.772,155.044 200.772,113.377 208.5,58C 207.467,41.5443 198.634,33.7109 182,34.5C 177.79,34.6443 173.624,35.1443 169.5,36C 159.049,39.1447 148.883,42.978 139,47.5C 135.466,47.7858 133.632,46.1191 133.5,42.5C 134.098,41.2054 134.598,39.8721 135,38.5C 162.232,17.6285 192.732,4.62853 226.5,-0.5 Z"/></g>
  <g><path style="opacity:0.985" fill="#fefffe" d="M 317.5,14.5 C 344.841,14.1669 372.175,14.5002 399.5,15.5C 409.021,60.2473 418.854,104.914 429,149.5C 456.708,104.583 484.541,59.7494 512.5,15C 539.839,14.1668 567.173,14.3335 594.5,15.5C 546.209,93.9186 497.542,172.085 448.5,250C 422.169,250.5 395.835,250.667 369.5,250.5C 352.167,171.833 334.833,93.1667 317.5,14.5 Z"/></g>
  <g><path style="opacity:0.985" fill="#fefffe" d="M 601.5,14.5 C 665.5,14.5 729.5,14.5 793.5,14.5C 789.5,34.8348 785.5,55.1681 781.5,75.5C 743.832,75.3333 706.165,75.5 668.5,76C 666.353,84.3788 664.686,92.8788 663.5,101.5C 696.507,101.167 729.507,101.5 762.5,102.5C 758.559,121.373 754.559,140.206 750.5,159C 717.5,159.333 684.5,159.667 651.5,160C 649.235,169.753 647.235,179.586 645.5,189.5C 684.5,189.5 723.5,189.5 762.5,189.5C 759.072,209.805 755.072,229.971 750.5,250C 685.168,250.5 619.834,250.667 554.5,250.5C 570.167,171.833 585.833,93.1667 601.5,14.5 Z"/></g>
  <g><path style="opacity:0.986" fill="#fefffe" d="M 827.5,14.5 C 866.835,14.3333 906.168,14.5 945.5,15C 966.521,15.7861 985.854,21.7861 1003.5,33C 1022.61,48.0568 1031.94,67.8901 1031.5,92.5C 1029.73,136.056 1008.73,166.056 968.5,182.5C 981.374,205.082 994.374,227.582 1007.5,250C 979.494,250.833 951.494,250.667 923.5,249.5C 912.58,230.662 901.913,211.662 891.5,192.5C 884.944,191.19 878.444,191.19 872,192.5C 868.1,211.834 864.266,231.167 860.5,250.5C 833.833,250.5 807.167,250.5 780.5,250.5C 795.659,171.705 811.326,93.0382 827.5,14.5 Z M 894.5,76.5 C 905.505,76.3335 916.505,76.5002 927.5,77C 945.824,79.9779 952.991,90.4779 949,108.5C 945.405,121.424 936.905,128.591 923.5,130C 910.504,130.5 897.504,130.667 884.5,130.5C 887.962,112.522 891.296,94.5223 894.5,76.5 Z"/></g>
  <g><path style="opacity:0.987" fill="#fefffe" d="M 1055.5,14.5 C 1128.17,14.5 1200.83,14.5 1273.5,14.5C 1269.63,35.192 1265.63,55.8586 1261.5,76.5C 1238.5,76.5 1215.5,76.5 1192.5,76.5C 1180.78,134.427 1169.45,192.427 1158.5,250.5C 1131.49,250.833 1104.49,250.5 1077.5,249.5C 1089.01,191.942 1100.68,134.442 1112.5,77C 1089.5,76.5 1066.5,76.3334 1043.5,76.5C 1047.89,55.9082 1051.89,35.2416 1055.5,14.5 Z"/></g>
  <g><path style="opacity:0.986" fill="#fefffe" d="M 1358.5,14.5 C 1384.83,14.5 1411.17,14.5 1437.5,14.5C 1455.78,93.1123 1474.44,171.612 1493.5,250C 1466.83,250.667 1440.17,250.667 1413.5,250C 1410.52,236.589 1407.85,223.089 1405.5,209.5C 1375.83,209.167 1346.16,209.5 1316.5,210.5C 1308.96,223.749 1301.29,236.915 1293.5,250C 1265.17,250.667 1236.83,250.667 1208.5,250C 1258.64,171.556 1308.64,93.0564 1358.5,14.5 Z M 1382.5,94.5 C 1386.93,113.141 1390.93,131.974 1394.5,151C 1379.82,151.833 1365.16,151.666 1350.5,150.5C 1361.18,131.806 1371.85,113.139 1382.5,94.5 Z"/></g>
  <g><path style="opacity:0.985" fill="#fefffe" d="M 1551.5,14.5 C 1577.83,14.5 1604.17,14.5 1630.5,14.5C 1625,41.4942 1619.83,68.4942 1615,95.5C 1643.83,68.6667 1672.67,41.8333 1701.5,15C 1732.17,14.1668 1762.84,14.3335 1793.5,15.5C 1754.69,51.3999 1715.69,87.0665 1676.5,122.5C 1702.08,164.668 1727.42,207.001 1752.5,249.5C 1722.84,250.667 1693.17,250.833 1663.5,250C 1647.67,224.833 1631.83,199.667 1616,174.5C 1608.7,180.802 1601.7,187.468 1595,194.5C 1590.97,212.8 1587.14,231.133 1583.5,249.5C 1557.17,250.833 1530.83,250.833 1504.5,249.5C 1520.55,171.243 1536.22,92.9097 1551.5,14.5 Z"/></g>
  <g><path style="opacity:0.984" fill="#fefffe" d="M 1999.5,14.5 C 1999.5,16.8333 1999.5,19.1667 1999.5,21.5C 1995.09,39.2276 1991.42,57.2276 1988.5,75.5C 1950.5,75.5 1912.5,75.5 1874.5,75.5C 1873.04,84.1476 1871.7,92.8142 1870.5,101.5C 1903.17,101.5 1935.83,101.5 1968.5,101.5C 1965.48,120.619 1961.81,139.619 1957.5,158.5C 1924.17,159.5 1890.84,159.833 1857.5,159.5C 1855.83,169.5 1854.17,179.5 1852.5,189.5C 1891.5,189.5 1930.5,189.5 1969.5,189.5C 1965.88,209.576 1961.88,229.576 1957.5,249.5C 1892.17,250.5 1826.84,250.833 1761.5,250.5C 1776.59,171.86 1792.26,93.3604 1808.5,15C 1872.17,14.5 1935.83,14.3333 1999.5,14.5 Z"/></g>
  <g><path style="opacity:0.947" fill="#fefffe" d="M 803.5,361.5 C 798.167,361.5 792.833,361.5 787.5,361.5C 777.705,360.286 768.705,356.786 760.5,351C 762.872,345.757 765.372,340.59 768,335.5C 780.415,344.648 793.915,346.815 808.5,342C 813.037,336.039 811.703,331.706 804.5,329C 795.077,326.644 785.744,323.978 776.5,321C 765.006,315.846 760.506,307.013 763,294.5C 766.809,282.707 774.976,275.874 787.5,274C 797.96,272.945 808.293,273.612 818.5,276C 822.319,277.074 825.652,278.907 828.5,281.5C 826.424,286.651 824.09,291.651 821.5,296.5C 810.736,290.092 799.402,288.592 787.5,292C 780.889,297.544 781.556,302.211 789.5,306C 801.349,308.128 812.683,311.794 823.5,317C 831.116,323.849 833.616,332.349 831,342.5C 825.309,353.924 816.143,360.257 803.5,361.5 Z"/></g>
  <g><path style="opacity:0.952" fill="#fefffe" d="M 1199.5,361.5 C 1194.5,361.5 1189.5,361.5 1184.5,361.5C 1155.25,355.375 1142.42,337.375 1146,307.5C 1152.69,284.997 1167.85,273.664 1191.5,273.5C 1216.93,273.438 1232.43,285.771 1238,310.5C 1239.65,338.573 1226.81,355.573 1199.5,361.5 Z M 1188.5,290.5 C 1209.27,291.767 1218.77,302.767 1217,323.5C 1210.38,341.557 1197.88,347.39 1179.5,341C 1165.61,330.867 1162.45,318.034 1170,302.5C 1174.67,296.089 1180.83,292.089 1188.5,290.5 Z"/></g>
  <g><path style="opacity:0.942" fill="#fefffe" d="M 833.5,274.5 C 858.5,274.5 883.5,274.5 908.5,274.5C 908.5,280.167 908.5,285.833 908.5,291.5C 899.5,291.5 890.5,291.5 881.5,291.5C 881.5,314.167 881.5,336.833 881.5,359.5C 874.5,359.5 867.5,359.5 860.5,359.5C 860.5,336.833 860.5,314.167 860.5,291.5C 851.5,291.5 842.5,291.5 833.5,291.5C 833.5,285.833 833.5,280.167 833.5,274.5 Z"/></g>
  <g><path style="opacity:0.953" fill="#fefffe" d="M 961.5,361.5 C 956.5,361.5 951.5,361.5 946.5,361.5C 929.179,358.345 919.013,348.012 916,330.5C 915.5,311.836 915.333,293.17 915.5,274.5C 922.5,274.5 929.5,274.5 936.5,274.5C 936.333,293.17 936.5,311.836 937,330.5C 940.847,341.803 948.68,345.97 960.5,343C 966,341.5 969.5,338 971,332.5C 972.45,313.221 972.95,293.888 972.5,274.5C 979.167,274.5 985.833,274.5 992.5,274.5C 992.667,294.169 992.5,313.836 992,333.5C 988.301,350.038 978.134,359.371 961.5,361.5 Z"/></g>
  <g><path style="opacity:0.969" fill="#fefffe" d="M 1011.5,274.5 C 1026.84,274.333 1042.17,274.5 1057.5,275C 1087.7,280.219 1100.54,298.052 1096,328.5C 1090.76,345.74 1079.26,355.907 1061.5,359C 1044.84,359.5 1028.17,359.667 1011.5,359.5C 1011.5,331.167 1011.5,302.833 1011.5,274.5 Z M 1031.5,291.5 C 1039.17,291.334 1046.84,291.5 1054.5,292C 1073.48,297.345 1079.98,309.512 1074,328.5C 1070.61,335.554 1065.11,340.054 1057.5,342C 1048.84,342.5 1040.17,342.666 1031.5,342.5C 1031.5,325.5 1031.5,308.5 1031.5,291.5 Z"/></g>
  <g><path style="opacity:0.935" fill="#fefffe" d="M 1110.5,274.5 C 1117.5,274.5 1124.5,274.5 1131.5,274.5C 1131.5,302.833 1131.5,331.167 1131.5,359.5C 1124.5,359.5 1117.5,359.5 1110.5,359.5C 1110.5,331.167 1110.5,302.833 1110.5,274.5 Z"/></g>
</svg>
