<?xml version="1.0" encoding="UTF-8"?>
<svg xmlns="http://www.w3.org/2000/svg" viewBox="144.52 755.74 1710.97 488.52">
  <defs>
    <style>
    .cls-1, .cls-2, .cls-5 { 
      fill: #fefffe; 
    }
    .cls-2 { 
      font-size: 100px;
      font-weight: 500;
    }
    </style>
  </defs>
  <path class="cls-5" d="m201.02,755.74h289.6c25.86,0,45.46,23.34,40.99,48.82l-77.17,439.17c-.05.3-.32.53-.63.53h-169.58c-.39,0-.69-.36-.63-.74l50.46-288.76c2.83-16.17-9.62-30.97-26.03-30.97h-121.83c-25.89,0-45.51-23.35-41.05-48.85l14.81-84.69c3.49-19.94,20.8-34.49,41.05-34.49Z"></path>
  <g>
    <g>
      <path class="cls-1" d="m559.53,1059.88l42.39-241.27h214.73c23.66,0,41.3,5.23,52.91,15.68,11.6,10.46,15.8,24.42,12.58,41.88-2.3,12.87-8.1,23.9-17.41,33.09-9.31,9.19-21.31,15.17-36.02,17.92,14.01,2.99,24.58,10.34,31.71,22.06,7.12,11.72,9.42,25.16,6.89,40.33-3.68,21.14-13.85,38.14-30.5,51.01-16.66,12.87-37.52,19.3-62.56,19.3h-214.73Zm108.91-77.89h84.44c6.43,0,11.08-.69,13.96-2.07,2.87-1.38,4.77-4.83,5.69-10.34.92-5.52.23-9.08-2.07-10.69-2.3-1.6-6.67-2.41-13.1-2.41h-84.44l-4.48,25.51Zm11.72-66.52h75.14c13.1,0,20.22-2.98,21.37-8.96.46-3.21-.58-5.69-3.1-7.41-2.53-1.72-7.47-2.58-14.82-2.58h-75.14l-3.45,18.96Z"></path>
      <path class="cls-1" d="m1107.03,1039.54c-24.93,18.84-60.03,28.26-105.29,28.26s-77.03-9.42-95.3-28.26c-18.27-18.84-24.64-43.89-19.13-75.14,5.52-31.25,20.73-56.23,45.67-74.97,24.93-18.72,60.03-28.09,105.29-28.09s77.03,9.37,95.3,28.09c18.27,18.73,24.64,43.72,19.13,74.97-5.51,31.25-20.74,56.3-45.67,75.14Zm-94.27-43.43c27.57.23,43.31-10.34,47.22-31.71,1.6-9.65-.12-17.35-5.17-23.09-5.06-5.74-15.4-8.62-31.02-8.62-27.57,0-43.31,10.57-47.22,31.71-1.84,9.19-.06,16.72,5.34,22.58,5.4,5.86,15.68,8.91,30.85,9.13Z"></path>
      <path class="cls-1" d="m1439.81,870.31l-91.68,94.78,58.25,94.78h-119.94l-11.03-34.12-23.09,34.12h-119.94l91.34-94.78-57.9-94.78h119.94l11.03,34.12,23.09-34.12h119.94Z"></path>
      <path class="cls-1" d="m1478.41,1059.88c-6.67-1.15-11.78-3.67-15.34-7.58-3.57-3.9-4.88-9.07-3.96-15.51.46-5.05,1.49-11.26,3.1-18.61,1.38-6.2,4.65-11.31,9.82-15.34,5.17-4.02,11.08-6.6,17.75-7.75,13.55-2.07,26.65-2.07,39.29,0,6.43,1.15,11.49,3.74,15.17,7.75,3.67,4.02,5.05,9.13,4.14,15.34-.46,5.29-1.5,11.49-3.1,18.61-1.61,6.44-4.88,11.61-9.82,15.51-4.94,3.91-10.86,6.44-17.75,7.58-13.33,2.07-26.43,2.07-39.29,0Z"></path>
      <path class="cls-1" d="m1855.47,962.33l-13.02,74.1h-34.54l-4.14,23.44h-98.57l4.14-23.44h-134.42l8.62-49.29,115.81-168.54h146.83l-25.16,143.72h34.47Zm-155.1,0h22.06l8.27-47.56-30.33,47.56Z"></path>
    </g>
    <text class="cls-2" x="555" y="1200" font-family="Arial, Helvetica, sans-serif">COMMUNICATION</text>
  </g>
</svg>